<svg width="50" height="50" viewBox="0 0 50 50" fill="none" xmlns="http://www.w3.org/2000/svg">
<path d="M18.0667 29.8542C18.0667 32.5417 20.1292 34.7083 22.6917 34.7083H27.9208C30.15 34.7083 31.9625 32.8125 31.9625 30.4792C31.9625 27.9375 30.8583 27.0417 29.2125 26.4583L20.8166 23.5417C19.1708 22.9583 18.0667 22.0625 18.0667 19.5208C18.0667 17.1875 19.8792 15.2917 22.1083 15.2917H27.3375C29.9 15.2917 31.9625 17.4583 31.9625 20.1458M25 12.5V37.5" stroke="white" stroke-width="1.5" stroke-linecap="round" stroke-linejoin="round"/>
<path d="M25 45.8334C36.5062 45.8334 45.8333 36.5063 45.8333 25C45.8333 13.4938 36.5062 4.16669 25 4.16669C13.4937 4.16669 4.16666 13.4938 4.16666 25C4.16666 36.5063 13.4937 45.8334 25 45.8334Z" stroke="white" stroke-width="1.5" stroke-linecap="round" stroke-linejoin="round"/>
</svg>
