<svg width="50" height="50" viewBox="0 0 50 50" fill="none" xmlns="http://www.w3.org/2000/svg">
<path d="M44.7708 25C45.4375 22.875 45.8333 20.5834 45.8333 18.1042C45.8333 11.6667 40.6458 6.45837 34.25 6.45837C30.4583 6.45837 27.1042 8.29171 25 11.125C23.9296 9.67895 22.5355 8.50364 20.9292 7.69326C19.3229 6.88288 17.5491 6.45996 15.75 6.45837C9.35416 6.45837 4.16666 11.6667 4.16666 18.1042C4.16666 32.6875 17.6667 41.2917 23.7083 43.375C24.0625 43.5 24.5208 43.5625 25 43.5625" stroke="white" stroke-width="1.5" stroke-linecap="round" stroke-linejoin="round"/>
<path d="M40.0208 32.7917L32.6458 40.1667C32.3542 40.4584 32.0833 41 32.0208 41.3959L31.625 44.2084C31.4792 45.2292 32.1875 45.9375 33.2083 45.7917L36.0208 45.3959C36.4167 45.3334 36.9792 45.0625 37.25 44.7709L44.625 37.3959C45.8958 36.125 46.5 34.6459 44.625 32.7709C42.7708 30.9167 41.2917 31.5209 40.0208 32.7917Z" stroke="white" stroke-width="1.5" stroke-miterlimit="10" stroke-linecap="round" stroke-linejoin="round"/>
<path d="M38.9583 33.8541C39.5833 36.1041 41.3333 37.8541 43.5833 38.4791" stroke="white" stroke-width="1.5" stroke-miterlimit="10" stroke-linecap="round" stroke-linejoin="round"/>
</svg>
