<svg width="30" height="30" viewBox="0 0 30 30" fill="none" xmlns="http://www.w3.org/2000/svg">
<path d="M10 7.5V6.5C10 4.2875 10 2.5 14 2.5H16C20 2.5 20 4.2875 20 6.5V7.5M10 27.5H20C25.025 27.5 25.925 25.4875 26.1875 23.0375L27.125 13.0375C27.4625 9.9875 26.5875 7.5 21.25 7.5H8.75003C3.41253 7.5 2.53753 9.9875 2.87503 13.0375L3.81253 23.0375C4.07503 25.4875 4.97503 27.5 10 27.5Z" stroke="white" stroke-width="1.5" stroke-miterlimit="10" stroke-linecap="round" stroke-linejoin="round"/>
<path d="M17.5 17.525V16.25C17.5 15 17.5 15 16.25 15H13.75C12.5 15 12.5 15 12.5 16.25V17.5375M17.5 17.525C17.5 18.8875 17.4875 20 15 20C12.525 20 12.5 18.9 12.5 17.5375M17.5 17.525C20.9553 17.0948 24.2452 15.7961 27.0625 13.75M12.5 17.5375C9.26252 17.175 6.08752 16.0125 3.27502 14.0875" stroke="white" stroke-width="1.5" stroke-miterlimit="10" stroke-linecap="round" stroke-linejoin="round"/>
</svg>
