<svg width="30" height="30" viewBox="0 0 30 30" fill="none" xmlns="http://www.w3.org/2000/svg">
<path d="M17.1625 4.38749L19.3625 8.78749C19.6625 9.39999 20.4625 9.98749 21.1375 10.1L25.125 10.7625C27.675 11.1875 28.275 13.0375 26.4375 14.8625L23.3375 17.9625C22.8125 18.4875 22.525 19.5 22.6875 20.225L23.575 24.0625C24.275 27.1 22.6625 28.275 19.975 26.6875L16.2375 24.475C15.5625 24.075 14.45 24.075 13.7625 24.475L10.025 26.6875C7.35001 28.275 5.72501 27.0875 6.42501 24.0625L7.31251 20.225C7.47501 19.5 7.18751 18.4875 6.66251 17.9625L3.56251 14.8625C1.73751 13.0375 2.32501 11.1875 4.87501 10.7625L8.86251 10.1C9.52501 9.98749 10.325 9.39999 10.625 8.78749L12.825 4.38749C14.025 1.99999 15.975 1.99999 17.1625 4.38749Z" stroke="white" stroke-width="1.5" stroke-linecap="round" stroke-linejoin="round"/>
</svg>
