<svg width="17" height="26" viewBox="0 0 17 26" fill="none" xmlns="http://www.w3.org/2000/svg">
<path d="M0.616729 0C0.259675 0 0 0.259675 0 0.616729V25.3833C0 25.7403 0.259675 26 0.616729 26H15.6454C16.0025 26 16.2622 25.7403 16.2622 25.3833V0.616729C16.2622 0.259675 16.0025 0 15.6454 0L0.616729 0ZM3.24594 3.24594H12.9838V19.4757H3.24594V3.24594ZM8.11486 21.0986C9.02372 21.0986 9.73783 21.8127 9.73783 22.7216C9.73783 23.6305 9.02372 24.3446 8.11486 24.3446C7.20599 24.3446 6.49189 23.6305 6.49189 22.7216C6.49189 21.8127 7.20599 21.0986 8.11486 21.0986Z" fill="white"/>
</svg>
